<svg xmlns="http://www.w3.org/2000/svg" width="1000" height="300" viewBox="0 0 1000 300">
  <defs>
    <style>
      .cls-1 {
        fill: #fff;
      }
    </style>
  </defs>
  <g id="Component_2_1" data-name="Component 2 – 1" transform="translate(0 0)">
    <path id="Path_5" data-name="Path 5" class="cls-1" d="M58.571-52.5H84.794V-.546q0,13.072-13.19,22.458T39.931,31.3H5.81V-52.5H32.191V22.023H45.3a15.631,15.631,0,0,0,9.4-2.793q3.87-2.793,3.87-6.592Zm52.6,9.274V-52.5h26.381v9.274Zm0,74.523V-33.841h26.381V31.3Zm52.6,0V-33.841h26.381v9.274a10.065,10.065,0,0,1,4.107-6.983q3.317-2.29,9-2.29H216.54a31.176,31.176,0,0,1,18.482,5.475q7.74,5.475,7.74,13.072V31.3H216.54V-15.294q0-3.8-3.87-6.536a15.858,15.858,0,0,0-9.4-2.737,15.588,15.588,0,0,0-9.241,2.737q-3.87,2.737-3.87,6.536V31.3ZM295.524-33.841H321.9a31.176,31.176,0,0,1,18.482,5.475q7.74,5.475,7.74,13.072V12.638q0,7.6-7.74,13.128A30.953,30.953,0,0,1,321.9,31.3H295.524a31.537,31.537,0,0,1-18.561-5.475q-7.819-5.475-7.819-13.184V-15.294q0-7.6,7.819-13.072A31.537,31.537,0,0,1,295.524-33.841Zm0,18.547V12.638q0,3.8,3.87,6.592a15.367,15.367,0,0,0,9.241,2.793,15.631,15.631,0,0,0,9.4-2.793q3.87-2.793,3.87-6.592V-15.294q0-3.8-3.87-6.536a15.858,15.858,0,0,0-9.4-2.737,15.588,15.588,0,0,0-9.241,2.737Q295.524-19.093,295.524-15.294ZM414,31.3V-52.5h52.761a30.953,30.953,0,0,1,18.482,5.531q7.74,5.531,7.74,13.128V12.638q0,7.6-7.74,13.128A30.953,30.953,0,0,1,466.761,31.3Zm26.381-9.274h13.111a15.631,15.631,0,0,0,9.4-2.793q3.87-2.793,3.87-6.592V-33.841q0-3.911-3.87-6.648a15.858,15.858,0,0,0-9.4-2.737H440.38ZM598.349,3.365h-52.6v9.274q0,3.8,3.87,6.592a15.367,15.367,0,0,0,9.241,2.793h13.269q13.111,0,13.111-9.385h13.111q-3,18.659-26.223,18.659H545.745a31.537,31.537,0,0,1-18.561-5.475q-7.819-5.475-7.819-13.184V-15.294q0-7.6,7.819-13.072a31.537,31.537,0,0,1,18.561-5.475h26.381a31.176,31.176,0,0,1,18.482,5.475q7.74,5.475,7.74,13.072Zm-52.6-9.274h26.381v-9.385q0-3.8-3.87-6.536a15.858,15.858,0,0,0-9.4-2.737,15.588,15.588,0,0,0-9.241,2.737q-3.87,2.737-3.87,6.536ZM677.491-33.841h26.223v33.3q0,13.072-13.19,22.458T658.851,31.3H624.729V-33.841H651.11V22.023h13.111a15.631,15.631,0,0,0,9.4-2.793q3.87-2.793,3.87-6.592Z" transform="translate(145.19 160.668)"/>
    <path id="Path_6" data-name="Path 6" class="cls-1" d="M156.224,16.6,46.273,166.6H5l109.951-150L5-133.4H46.273Z" transform="translate(843.776 133.4)"/>
    <path id="Path_7" data-name="Path 7" class="cls-1" d="M151.224,150,41.273,300H0L109.951,150,0,0H41.273Z" transform="translate(151.224 300) rotate(180)"/>
  </g>
</svg>
